<?xml version="1.0" encoding="utf-8"?>
<!-- Generator: Adobe Illustrator 26.3.1, SVG Export Plug-In . SVG Version: 6.00 Build 0)  -->
<svg version="1.1" id="Capa_1" xmlns="http://www.w3.org/2000/svg" xmlns:xlink="http://www.w3.org/1999/xlink" x="0px" y="0px"
	 viewBox="0 0 942 508" style="enable-background:new 0 0 942 508;" xml:space="preserve">
<style type="text/css">
	.st0{opacity:0.6;}
	.st1{fill:#B2B2B2;}
	.st2{font-family:'ProximaNova-Extrabld';}
	.st3{font-size:206.4431px;}
	.st4{font-family:'ProximaNova-MediumIt';}
</style>
<g>
	<g id="XMLID_3893_" class="st0">
		<g id="XMLID_3978_">
			<path id="XMLID_3979_" class="st1" d="M434.19,272.85c0.1-5.62,4.73-15.12,8.91-12.22c-4.17-2.91-4.16-2.88-3.37-10.89
				c2.78,1.94,5.45-4.01,7.41-7.61c-3.86,1.55-6.68,5.3-12.35,12.67c1.62,11.11-17.16,19.73-14.8,30.63
				C424.61,281.71,431.95,279.79,434.19,272.85z"/>
		</g>
		<g id="XMLID_3976_">
			<path id="XMLID_3977_" class="st1" d="M473.47,252.58l-1.03-2.14l-5.23,14.21C467.42,261.23,471.21,251.71,473.47,252.58z"/>
		</g>
		<g id="XMLID_3974_">
			<path id="XMLID_3975_" class="st1" d="M494.54,209.36c2.37,3.12,8.29-2.01,11.05-0.02c-6.37-3.83,5.13-10.72,8.01-16.56
				l-3.29-5.35c-7,2.9-14.32,17.22-22.02,28.3L494.54,209.36z"/>
		</g>
		<g id="XMLID_3972_">
			<path id="XMLID_3973_" class="st1" d="M504.74,201.52l-0.72-5.58C502.87,199.46,498.83,206.64,504.74,201.52z"/>
		</g>
		<g id="XMLID_3970_">
			<path id="XMLID_3971_" class="st1" d="M482.89,198.17c-6.2,8.65,5.54-4.03,0.74,5.6C484.74,200.22,486.82,196.6,482.89,198.17z"
				/>
		</g>
		<g id="XMLID_3968_">
			<path id="XMLID_3969_" class="st1" d="M517.28,167.63c-3.58,6.68-7.09,13.38-10.49,20.13l7.26-6.31L517.28,167.63z"/>
		</g>
		<g id="XMLID_3966_">
			<path id="XMLID_3967_" class="st1" d="M527.97,173.63c-1.69,2.37-6.04,4.94-5.28,0.38c8.23-3.99,6.01-11.66,13.47-15.46
				l-2.6,6.88c4.4,2.02,4.77-14.88,11.4-9.49c1.03-11.22-10.2,1.52-6.01-11.01c-5.99,10.33-12.47,16.39-19.46,23.66
				c3.07-1.37,3.45-2.54,6.99-5c-3.93,5.89-7.25,15.17-11.39,22.29C522.08,185.26,521.47,177.5,527.97,173.63z"/>
		</g>
		<g id="XMLID_3964_">
			<path id="XMLID_3965_" class="st1" d="M549.93,145.73c5.02-5.65,12.31-14.62,8.76-20.22c-8.62,3.31-5.25,7.92-5.42,12.35
				c-2.27,1.13-7.3,6.82-8.06,2.34C546.97,140.17,545.96,146.97,549.93,145.73z"/>
		</g>
		<g id="XMLID_3962_">
			<path id="XMLID_3963_" class="st1" d="M569.42,123.52l-0.73-7.91l-1.58,3.34l-3.35-2.34c0.35,1.15,4.26,8-0.92,13.43
				C567.75,129.04,565.76,125.65,569.42,123.52z"/>
		</g>
		<g id="XMLID_3960_">
			<path id="XMLID_3961_" class="st1" d="M549.31,103.8c5.53-2.28,6.49-5.59,9.42-11.31c-5.48,6.69-13.45,15.9-13.29,19.36
				l-0.34-1.16c0,0-2.95,8.02-3.25,14.91C544.02,116.3,558.75,108.54,549.31,103.8z"/>
		</g>
		<g id="XMLID_3958_">
			<path id="XMLID_3959_" class="st1" d="M541.86,111.85l1.52-6.91L541.86,111.85z"/>
		</g>
		<g id="XMLID_3956_">
			<path id="XMLID_3957_" class="st1" d="M583.91,105.33c-3.13,2.31-6.08,4.82-9.14,7.24l3.17-0.93
				C579.94,109.54,581.83,107.34,583.91,105.33z"/>
		</g>
		<g id="XMLID_3954_">
			<path id="XMLID_3955_" class="st1" d="M561.84,104.08c7.03-6.58-6.85,0.91-0.7-5.73c1.14-2.28-8.81,10.03-7.1,12.4
				C556.29,109.61,557.58,101.63,561.84,104.08z"/>
		</g>
		<g id="XMLID_3952_">
			<path id="XMLID_3953_" class="st1" d="M589.46,100.27c1.19-3.24,2.33-6.57,3.69-9.73C591.79,93.7,590.65,97.04,589.46,100.27z"/>
		</g>
		<g id="XMLID_3950_">
			<path id="XMLID_3951_" class="st1" d="M608.24,85.96l-0.62-3.47c4.31-1.99,7.95-5.94,11.96-8.97c4.01-3.02,8.09-5.48,12.6-4.84
				c-3.46-2.05-1.56-8.57-8.63-4.52c0.22,2.37-2.07,4.11-0.24,5.7c-3.14,1.52-4.27-1.02-6.75-0.42
				c-2.56,6.24-11.07,10.43-12.63,15.79c1.24-2.09,2.19-1.88,3.69-2.74c-3.86,10.52-13.86,2.52-11.07,11.83
				C597.32,89.97,605.68,89.97,608.24,85.96z"/>
		</g>
		<g id="XMLID_3948_">
			<path id="XMLID_3949_" class="st1" d="M593.77,71.15l-6.94,4.96c-0.86-4.78,7.39-7.26,6.06-10.86c-2.03-1.52-9.13,3.48-7.91,0.14
				c5.64,7.69-8.18,8.44,2.29,13.07c-7.07,8.4-6.59-1.94-14.35,6.73l1.34,5.84C581.34,80.01,586.18,81.79,593.77,71.15z"/>
		</g>
		<g id="XMLID_3946_">
			<path id="XMLID_3947_" class="st1" d="M620.01,51.58l5.19,0.18l-4.42-2.33c3.79-2.87,7.88-4.49,11.91-5.39
				c4.1-0.81,8.25-0.76,12.04-0.68c7.55,0.03,14.19,1.29,18.39-2.36c2.3-2.99,5.18-4.82,8.27-6.07c3.08-1.28,6.32-2.09,9.62-2.67
				c3.37-0.36,6.77-0.56,10.1-0.98c1.67-0.21,3.31-0.48,4.95-0.84c1.67-0.23,3.32-0.57,4.95-1.07c5.66-5.17-6.86-0.91-8.13-2.69
				c-0.12-7.98,7.44,2.23,9.03-4.51c-0.15-2.75-4.06-3.36-8.89-3.46c-4.74,0.21-10.31,1.05-13.89,0.47
				c-5.04,2.39-4.24,4.26-4.69,7.65c-2.35-2.3-7.86-1.02-10.4-3.25c-4.56,4.05-8.64,5.56-13.05,6.67
				c-4.41,1.12-8.61,2.65-12.19,7.57c-5.16-1.68,6.81-5.09,3.29-3.67l-5.21,3.29l0.91,0.23c-1.23,1.99-3.1,3.73-5.26,5.33
				c-2.1,1.68-4.54,3.15-7.04,4.41c-5.06,2.42-10.18,4.21-13.12,4.82c4.2-1.48,8.49-0.49,5.4,3.55l-6.11-1.33
				c-1.36,4.07-2.79,7.94-3.92,12.03C611.05,57.78,624.02,59.58,620.01,51.58z"/>
		</g>
		<g id="XMLID_3944_">
			<path id="XMLID_3945_" class="st1" d="M605.35,52.02c-11.74,6.1,5.55,4.46-6.54,11.79l5.42-4.98l5.68-4.73L605.35,52.02z"/>
		</g>
		<g id="XMLID_3942_">
			<path id="XMLID_3943_" class="st1" d="M663.54,29.34l7.06,0.63c-2.85-2.46-5.72-0.66-7.27,0.76
				C661.86,32.29,661.54,33.32,663.54,29.34z"/>
		</g>
		<g id="XMLID_3940_">
			<polygon id="XMLID_3941_" class="st1" points="685.14,21.07 683.95,27.92 688.38,22.84 			"/>
		</g>
		<g id="XMLID_3938_">
			<path id="XMLID_3939_" class="st1" d="M707.02,22.99c3.85-4.09-1.99-5.43-7.12-3.46C704.71,18.68,707.67,20.74,707.02,22.99z"/>
		</g>
		<g id="XMLID_3936_">
			<path id="XMLID_3937_" class="st1" d="M740.36,31.23c-4.76,0.23-2.62,0.51-0.19,1.46c2.45,1.16,5.08,3.01,1.79,5.67
				C743.09,35.78,747.99,32.44,740.36,31.23z"/>
		</g>
		<g id="XMLID_3934_">
			<path id="XMLID_3935_" class="st1" d="M768.11,48.33c-3.18,0.41-4.25-0.71-4.45-2.24C765.92,46.37,767.57,47.3,768.11,48.33z"/>
		</g>
		<g id="XMLID_3932_">
			<path id="XMLID_3933_" class="st1" d="M653.92,50.98c-0.96,0.62-2,1.26-3.06,1.67C651.9,52.08,652.89,51.54,653.92,50.98z"/>
		</g>
		<g id="XMLID_3930_">
			<path id="XMLID_3931_" class="st1" d="M655.92,49.9l-2,1.07C654.64,50.53,655.31,50.15,655.92,49.9z"/>
		</g>
		<g id="XMLID_3928_">
			<path id="XMLID_3929_" class="st1" d="M726.18,40.91l-0.03,0.01c-0.26-0.17-0.5-0.27-0.76-0.48L726.18,40.91z"/>
		</g>
		<g id="XMLID_3926_">
			<path id="XMLID_3927_" class="st1" d="M491.76,228.91c-0.79,1.85-1.53,3.2-2.23,4.21c0.72-1.4,1.45-2.81,2.17-4.19
				C491.72,228.91,491.73,228.91,491.76,228.91z"/>
		</g>
		<g id="XMLID_3924_">
			<path id="XMLID_3925_" class="st1" d="M481.59,228.98c1.17-9.23,12.64-2.61,17.6-15.59c-2.25,5.08-4.82,10.26-7.5,15.54
				C482.33,232.22,492.17,222.07,481.59,228.98z"/>
		</g>
		<g id="XMLID_3922_">
			<path id="XMLID_3923_" class="st1" d="M540.59,130.66c0.04-0.18,0.12-0.3,0.15-0.49C541.09,129.38,540.98,129.84,540.59,130.66z"
				/>
		</g>
		<g id="XMLID_3920_">
			<polygon id="XMLID_3921_" class="st1" points="224.42,478.43 224.54,480.12 216.7,478.67 			"/>
		</g>
		<g id="XMLID_3918_">
			<path id="XMLID_3919_" class="st1" d="M225.86,481.37c4.5,0.55,9,0.69,13.62,1.02c-25.84,5.17-53.23,6.01-79.39-1.06l3.09-1.54
				c-0.04-0.42,0.91-0.39,2.62-0.16c1.73,0.13,4.21,0.48,7.19,0.98c2.99,0.4,6.44,1.36,10.23,1.63c3.78,0.38,7.81,0.78,11.84,1.19
				C211.23,484.39,227.2,482.5,225.86,481.37z"/>
		</g>
		<g id="XMLID_3916_">
			<path id="XMLID_3917_" class="st1" d="M229.19,478.21c6.09-8.24,12.79,0.62,20.52-6.7c-2.5,2.36-4.64,4.71-6.94,6.44
				c-2.33,1.55-4.84,2.46-7.95,2.1L229.19,478.21z"/>
		</g>
		<g id="XMLID_3914_">
			<path id="XMLID_3915_" class="st1" d="M250.58,459.8c4.18,0.55,7.52-4.12,9.91-3.71C260.94,461.53,253.96,459.88,250.58,459.8z"
				/>
		</g>
		<g id="XMLID_3912_">
			<path id="XMLID_3913_" class="st1" d="M253.74,437.27c0.47-0.27,0.97-0.44,1.49-0.56c-0.48,0.52-0.91,1.02-1.21,1.48
				L253.74,437.27z"/>
		</g>
		<g id="XMLID_3910_">
			<path id="XMLID_3911_" class="st1" d="M254.01,438.2l0.7,2.32C253.33,440,253.39,439.17,254.01,438.2z"/>
		</g>
		<g id="XMLID_3908_">
			<path id="XMLID_3909_" class="st1" d="M255.22,436.71c1.08-1.19,2.39-2.47,2.84-3.68l-1.5,0.13c1.71-1.14,4.12-4.44,5.49-3.53
				c-3.71,1.17-3.15,2.78-2.05,5.98l6.13-2.17C268.12,441.27,260.78,435.56,255.22,436.71z"/>
		</g>
		<g id="XMLID_3906_">
			<path id="XMLID_3907_" class="st1" d="M273.19,427.09c-1.23,2.49-2.66,4.66-4.1,6.98C265.58,430.65,271.07,428.36,273.19,427.09z
				"/>
		</g>
		<g id="XMLID_3904_">
			<path id="XMLID_3905_" class="st1" d="M284.37,427.16c-0.75,1.88-6.89,4.58-2.32,4.56c-0.55,1.31-1.8,1.75-3.03,2.38
				C282.55,431.01,276.24,428.17,284.37,427.16z"/>
		</g>
		<g id="XMLID_3902_">
			<path id="XMLID_3903_" class="st1" d="M279.02,434.1c-0.42,0.37-0.91,0.74-1.63,1.12C277.88,434.73,278.45,434.39,279.02,434.1z"
				/>
		</g>
		<g id="XMLID_3898_">
			<path id="XMLID_3899_" class="st1" d="M298.7,424.22c0.75-0.43,1.5-0.89,2.23-1.43c-0.63,0.46-1.15,0.96-1.65,1.39L298.7,424.22z
				"/>
		</g>
		<g id="XMLID_3896_">
			<path id="XMLID_3897_" class="st1" d="M74.84,437.79c3.35,4.76,6.67,9.48,10.89,14.28c2.23,2.28,4.88,4.42,7.76,6.63
				c2.99,2.09,5.96,4.6,10.01,6.28c3.12-4.85,6.51,2.56,10.7-1.93c-3.55-2.22-1.95-1.26,2.27,1.24c1.07,0.6,2.24,1.39,3.64,2.08
				c1.42,0.65,2.98,1.35,4.62,2.1c3.3,1.45,6.89,3.17,10.62,4.6c15.15,5.5,31.17,7.29,25.27,4.48l-4.43,1.48
				c1.87-1.55,3.69-3.12,5.46-4.7c3.35,1.93,7.38,4.3,11.37,5.97c3.97,1.67,7.83,2.89,10.62,1.24c0.15,0.25-0.75,0.35-2.44,0.35
				c-1.68-0.09-4.12-0.49-7.09-0.94c-2.95-0.54-6.49-0.92-10.16-1.89c-3.66-1.04-7.57-2.16-11.47-3.27
				c-3.89-1.14-7.57-2.92-11.11-4.25c-1.76-0.7-3.45-1.38-5.04-2.01c-1.53-0.78-2.97-1.52-4.28-2.19c-5.26-2.7-8.66-4.29-8.32-3.62
				c-0.41-2.21,4.54-0.99,12.02,1.9c3.75,1.44,8.48,2.58,13.38,4.26c2.44,0.91,5.1,1.46,7.8,2.05c2.69,0.62,5.43,1.25,8.19,1.88
				c5.55,1.06,11.25,1.6,16.56,2.37c5.37,0.18,10.44,0.36,14.84,0.51c8.8-0.58,14.87-1.11,15.4-1.99l1.21,3.58
				c5.58-2.51,9.95-5.08,13.92-7.77c3.95-2.87,7.55-5.5,11.72-7.53l2.96,3.86c-6.92-0.03-8.12,3.07-14.8,6.25
				c5.95-1.47,9.56-1.61,12.87-1.71c3.29-0.14,6.19-0.57,10.62-2.13c-1.85-5.47-8.3-0.77,1.96-6.74c1.94,0.75,1.51,3.11,1.78,4.83
				c0.25,1.67,1.34,2.93,6.17,0.56c6.34-1.36,8.21-3.84,9.68-6.46c1.43-2.78,2.49-5.7,7.34-8.07l-7.48,0.89
				c3.5-1.92,9.76-5.64,14.46-4.72c-4.09,1.75-13.46,8.97-11.08,14.32c3.85-3.08,14.45-5.09,17.93-7.53l-0.46,4.78
				c5.86,1.2,5.58-5.05,12.43-4.8c3.54-4.87-5.74-3.31-3.94-6.33c1.58,0.63,11.76-3.13,13.39-7.27c-3.46-2.85-5.67-0.73-8.37,1.73
				c-2.68,2.43-5.83,5.36-10.77,3.15c3.15-0.96,6.1-2.31,9.12-3.59c0.38-5.17-2.88-3.12-6.29-0.71c-3.51,2.27-7.4,4.67-7.58,1.01
				c1.09-5.42,5.22-5.25,9.19-5.73c3.97-0.37,7.95-1.05,7.6-7.4c-4.86,0.53-16.41,7.61-16.5,3.89c5.7,0.37,5.5-6.71,10.29-10.89
				c2.91-0.32,5.81-0.91,8.76-1.38c1.22-4.14-1.06-2.57-4.19-2.45c3.07-0.71,6.23-2.22,9.41-4.28c3.11-2.18,6.29-4.83,9.61-7.53
				c6.51-5.63,13.42-11.64,21.58-15.53c6.42-7.87-1.69-3.52-0.52-8.79c7.31-0.32,10.7-9.66,14.33-13.86
				c1.38-1.01-0.4-6.58-2.99-6.77c-2.26,4.19-4.57,8.35-7.03,12.37c-1.51-2.33-6.11-3.93-9.04,0c4.72,2.22,0.3,4.73-4.52,7.4
				c-4.76,2.77-9.76,5.87-6.42,10.26l-3.28-3.89c-3.52,4.57-6.94,9.43-10.74,13.76l0.83,0.21c-0.51-0.67-2.77,2.25-6.04,5.93
				c-3.34,3.53-7.85,7.58-12.28,9.44c1.28-2.95,15.16-10.48,4.38-9.62c3.82-6.18,16.31-10.41,24.44-20.66l-4.17-0.9
				c6.48-12.38,23.46-20.5,32.66-33l0.5,6.47c4.96-2.77,12.41-5.82,12.63-12.33c-4.08,5.27-3.92,0.93-4.72-1.26
				c3.73-8.38,14.09-17.01,19.99-28.09c0,0,0.45,1.08,1.32,1.07c1.85-3.99,3.55-8.16,5.32-12.23c4.22-4.55,7.68-4.73,12.41-6.14
				c0.78-2.27,4.08-6.92,0.59-6.68c-0.91,0.86-1.82,1.73-2.05,2.54c-0.48-8.4,3.92-2.93,5.98-11.67c-0.03,7.8,6.21,1.74,9.44,4.82
				c3.91-9.26-5.97-5.08-6.95-7.23c8.74-8.47,12.68-7.8,20.02-17.45c-1.89-2.04-6.21,6.19-9.33,5.38c2.48-2.48,4.45-6.01,3.94-7.08
				l-5.83,5.02c9.55-8.69,16.8-18.53,22.51-31.59l-1.75,0.2l4.79-7.33l2.57,5.36c1.44-4.69,7.94-6.61,5.88-10.9l-1.24,1.28
				l1.81-5.88l0.96,7.82c5.84-5.21,2.68-19.65,10.15-29.69c7.14,1.43-9.53,19.38-2.91,25.41c3.38-2.69,8.36-7.82,7.71-11.17
				c-2.27-0.86-3.89,1.61-5.51,4.09c1.91-11.62,16.92-21.36,14.31-31.34l-6.89,5.36c4.55-8.54,15.6-8.6,13.21-14.06l3.1,11.1
				c1.78-10.46,9.45-20.39,12.07-29.77c-4.05-3.08-7.44,11-7.85,9.91l-0.58-5.69c10.64-10.14,4.84-1.65,17.3-14.13l-2.66-2.1
				c7.52-1.71,8.84-20.19,12.62-10.06l-4.5,2.57l3.51,2.08l9.95-17.78c1.16,3.4,6.57-4.79,8.09-0.25l1.82-8.09
				c6.61,1.03-3.13,14.99-0.08,18.29c2.24,1.41,4.13-1.48,4.89-3.03c-2.09,9.5-12.58,6.89-18.05,13.87l0.39,5.7l-3.95-3.18
				c-1.37,3.52-0.49,8.01,0.41,10.21c-10.64,3.04-9.19,15.43-17.65,25.3c3.63-10.57-7.87,3.02-7.95,0.77
				c-3.39,4.92-3.92,22-11.79,22.88c-3.9,1.59,0.88-8.06-4.52-1.75c-2.39,4.83-2.14,9.35,1.77,7.75
				c-5.14,10.82-13.65,22.07-20.4,33.04l-1.18-4.39c-6.7,5.33-6.97,14.37-6.15,19.94c-1.75,0.2-1.25,1.27-2.26-0.86
				c-10.23,5.61-1.22,14.82-11.51,28.27c4.5,1.81,9.03-4.31,10.01-10.04l3.78,4.1c8.11-12.22,15.98-26.72,19.59-38.48l0.46,6.74
				c11.61-4.79-2-9.96,10.13-13.68c2.19-7.06-5.12,2.87-4.18-2.9c4.01-3.43,7.21,6.09,12.02-0.85
				c-14.66,28.17-34.07,58.7-52.26,86.78c0.47,1.09,1.77-0.16,3.06-1.39c-0.25,6.8-17.6,26.87-34.99,45.3
				c-17.24,18.59-34.78,35.07-30.83,41.08c-2.66-0.2-0.53-5.76-5.31-0.4c0.27,1.17-0.06,3.45,2.58,3.65
				c-9.22,3.83-16.71,11.27-24.91,18.89c-8.11,7.65-17,15.48-27.52,19.72c1.77,1.67-1.51,5.6-0.72,6.99
				c-4.85-0.23-9.19,2.58-13.41,5.66c-4.33,2.85-8.63,5.79-12.54,6.08l3.32,1.36l-5.12,2.67l-5.3,2.3c-3.54,1.5-7.05,3.1-10.63,4.51
				c-0.27,1.22,2.67,0.1,4.51-0.33c-4.18,3.27-6.44,0.53-7.69-1.47l-7.81,8.97c-16.06-0.34-31.83,4.82-49.63,7.59
				c-17.53,2.84-37.19,3.47-54.03-4.05c-3.19,1.51-6.13,2.4-9.43,2.62c-1.65,0.11-3.39,0.07-5.3-0.16
				c-1.86-0.38-3.89-0.95-6.17-1.73l3.89,3.09c-10.56-0.01,0.32-2.42-8.11-3.77c-6.47,0.55-4.44,5.87,3.93,6.43
				c4.03,3.34,0.68,3.76-3.12,3.45c-3.71-1.58-7.38-3.16-10.94-4.88c-3.44-1.99-6.81-4.02-10.1-6.09l-4.85-3.13
				c-1.56-1.1-3-2.38-4.47-3.58c-2.91-2.43-5.72-4.9-8.41-7.38c-5.24-5.13-9.53-10.94-13.56-16.41
				C80.16,449.59,77.22,443.62,74.84,437.79z"/>
		</g>
		<g id="XMLID_3894_">
			<path id="XMLID_3895_" class="st1" d="M823.66,91.1c0.18-3.13,6.97,5.06,7.12-1.97c-0.56-2.34-1.36-4.79-2.58-7.08
				c-1.35-2.13-2.96-4.26-4.74-6.39c-0.89-1.06-1.82-2.14-2.79-3.19c-1.1-0.9-2.21-1.82-3.33-2.74c-2.31-1.78-4.57-3.76-7.09-5.41
				c-10.17-6.66-21.63-11.29-31.18-17.88c-4.85-4.82-6.51-5.18-11.53-8.3c-0.24,0.74-0.41,1.72-0.31,2.63
				c-3.02-0.67-7.12-0.77-11.14-1.3c-4.01-0.63-8.1-0.57-11.21-1.94c-1.82,0.92-3.09,4.56,0.24,3.79
				c-4.66,1.29-8.63-0.04-12.33-1.59c-3.66-1.55-7.01-3.23-9.52-1.27c4.85,1.73-4.1,4.14,1.55,5.26
				c-9.49,1.99-10.86-11.37-19.43-10.86c-0.27,1.11-0.53,2.23,1.17,2.15c-2.51-0.86-5.47-0.69-8.5-0.1
				c-3.01,0.71-6.01,2.09-8.82,3.14c-5.67,2-10.19,4.01-12.4-0.05l-2.01,4.95c-4.89-1.09-4.95-3.7-11.64-1.57
				c-3.37,3.35,1.67,2.95,0.82,4.95c-1.66-1.22-4.98-0.09-8.82,1.1c-3.78,1.36-7.97,2.98-11.75,2.23c-1.67-2.35,1.53-2.04,5.3-2.01
				c1.89,0.03,3.92-0.05,5.62-0.53c1.74-0.39,3.14-1.26,3.76-3.03c-0.38-1.09-1.25-1.02-2.32-0.62c3.32-1.51,6.64-2.76,9.92-3.81
				c3.3-1.01,6.73-1.45,9.98-1.97c6.48-1.15,13-0.84,19.02-0.89c6.04-0.01,11.9,0.72,17.37,0.27c5.58,0.2,10.88-0.63,16.28-2.12
				c5.14,3.78,8.47-0.22,10.66-4.33c-4-1.57-16.39-4.86-15.67,3.49l-7.74-4.16c-2.62,0.77-3.97-7.24-5.45-8.38
				c5.31,0.17,10.49-8.55,2.59-10.37c7.31-1.52,6.6,2.91,5.82,7.2c-0.79,4.29-1.66,8.46,4.17,6.58l1.14-6.04
				c-1.94,3.16,8.78,5.25,12.6,3.08l-1.69-1.06c16.39,0.68,35.32,2.36,54.04,7.64c18.71,5.13,36.96,14.07,51.46,25.32
				c-0.69,4.26,0.27,7.16,2.18,9.43c2.01,2.17,4.63,4.05,7.31,5.98c2.71,1.89,5.54,3.76,7.45,6.02c1.78,2.35,2.43,5.21,1.22,8.54
				c3.85,2.13,0.96-7.63,6.77-2.34c2.95,2.71-0.03,5.05-1.02,5.49c0.97,0.73,1.95,1.48,2.95,2.23c-5.2,4.93-11.48,7.28-18.74,7.51
				c-3.62,0.09-7.46-0.39-11.46-1.48c-1-0.27-2-0.59-3.03-0.93c-1.11-0.26-2.23-0.56-3.37-0.89C828.3,92.86,826,92.06,823.66,91.1z"
				/>
		</g>
	</g>
	<g>
		<text transform="matrix(1 0 0 1 7.2358 303.047)"><tspan x="0" y="0" class="st2 st3">Bella</tspan><tspan x="477.08" y="0" class="st4 st3">bella</tspan></text>
		<g>
			<path d="M158.82,366.86h-25.14l-5.2,11.83h-6.96l21.42-47.31h6.69l21.49,47.31h-7.1L158.82,366.86z M156.46,361.46l-10.2-23.18
				l-10.2,23.18H156.46z"/>
			<path d="M200.66,355.04c0-13.99,10.68-24.19,25.07-24.19c7.3,0,13.65,2.5,17.98,7.37l-4.39,4.26c-3.65-3.85-8.11-5.61-13.31-5.61
				c-10.68,0-18.58,7.7-18.58,18.18s7.91,18.18,18.58,18.18c5.2,0,9.66-1.82,13.31-5.68l4.39,4.26c-4.33,4.87-10.68,7.43-18.04,7.43
				C211.34,379.23,200.66,369.03,200.66,355.04z"/>
			<path d="M275.55,355.04c0-13.99,10.68-24.19,25.07-24.19c7.3,0,13.65,2.5,17.98,7.37l-4.39,4.26c-3.65-3.85-8.11-5.61-13.31-5.61
				c-10.68,0-18.58,7.7-18.58,18.18s7.91,18.18,18.58,18.18c5.2,0,9.66-1.82,13.31-5.68l4.39,4.26c-4.33,4.87-10.68,7.43-18.04,7.43
				C286.22,379.23,275.55,369.03,275.55,355.04z"/>
			<path d="M389.63,372.81v5.88H355.3v-47.31h33.38v5.88h-26.63v14.53h23.72v5.74h-23.72v15.27H389.63z"/>
			<path d="M423.29,373.28l2.5-5.27c3.51,3.18,9.53,5.47,15.61,5.47c8.18,0,11.69-3.18,11.69-7.3c0-11.56-28.65-4.26-28.65-21.83
				c0-7.3,5.68-13.51,18.11-13.51c5.54,0,11.29,1.49,15.2,4.19l-2.23,5.41c-4.12-2.64-8.79-3.85-12.98-3.85
				c-8.04,0-11.49,3.38-11.49,7.5c0,11.56,28.65,4.33,28.65,21.69c0,7.23-5.81,13.45-18.31,13.45
				C434.17,379.23,427.07,376.8,423.29,373.28z"/>
			<path d="M492.76,355.04c0-13.85,10.68-24.19,25.21-24.19c14.39,0,25.07,10.27,25.07,24.19s-10.68,24.19-25.07,24.19
				C503.44,379.23,492.76,368.89,492.76,355.04z M536.28,355.04c0-10.47-7.84-18.18-18.31-18.18c-10.61,0-18.45,7.7-18.45,18.18
				s7.84,18.18,18.45,18.18C528.45,373.21,536.28,365.51,536.28,355.04z"/>
			<path d="M612.05,378.69l-10.2-14.53c-0.95,0.07-1.96,0.13-2.97,0.13h-11.69v14.39h-6.76v-47.31h18.45
				c12.3,0,19.73,6.22,19.73,16.49c0,7.3-3.78,12.57-10.41,14.93l11.22,15.88H612.05z M611.85,347.87c0-6.76-4.53-10.61-13.18-10.61
				h-11.49v21.29h11.49C607.32,358.55,611.85,354.63,611.85,347.87z"/>
			<path d="M656.59,331.38h6.76v47.31h-6.76V331.38z"/>
			<path d="M700.72,355.04c0-13.85,10.68-24.19,25.21-24.19c14.39,0,25.07,10.27,25.07,24.19s-10.68,24.19-25.07,24.19
				C711.4,379.23,700.72,368.89,700.72,355.04z M744.25,355.04c0-10.47-7.84-18.18-18.31-18.18c-10.61,0-18.45,7.7-18.45,18.18
				s7.84,18.18,18.45,18.18C736.41,373.21,744.25,365.51,744.25,355.04z"/>
			<path d="M784.06,373.28l2.5-5.27c3.51,3.18,9.53,5.47,15.61,5.47c8.18,0,11.69-3.18,11.69-7.3c0-11.56-28.65-4.26-28.65-21.83
				c0-7.3,5.68-13.51,18.11-13.51c5.54,0,11.29,1.49,15.2,4.19l-2.23,5.41c-4.12-2.64-8.79-3.85-12.98-3.85
				c-8.04,0-11.49,3.38-11.49,7.5c0,11.56,28.65,4.33,28.65,21.69c0,7.23-5.81,13.45-18.31,13.45
				C794.94,379.23,787.84,376.8,784.06,373.28z"/>
		</g>
	</g>
</g>
</svg>
